<svg xmlns="http://www.w3.org/2000/svg" xmlns:svg="http://www.w3.org/2000/svg" id="svg2" width="744.094" height="1052.362" version="1.1"><metadata id="metadata7"/><g id="layer1"><path style="fill:#000;fill-opacity:1;display:none" id="path3807" d="m 555.00002,474.86218 a 166.78572,153.92857 0 1 1 -333.57145,0 166.78572,153.92857 0 1 1 333.57145,0 z" transform="matrix(0.93361884,0,0,1.0069605,13.270112,-2.9481622)"/><path style="fill:#416ddd;fill-opacity:1" id="path2985" d="m 527.85713,474.50504 a 151.42857,151.42857 0 1 1 -302.85715,0 151.42857,151.42857 0 1 1 302.85715,0 z" transform="translate(-39.999999,15.000003)"/><path style="opacity:.8;fill:#92ddfa;fill-opacity:.55707762" id="path3755" d="m 473.66835,473.79074 a 80.096909,94.122147 0 1 1 -160.19382,0 80.096909,94.122147 0 1 1 160.19382,0 z" transform="matrix(1.2630579,0,0,1.0821236,-162.81781,-19.980772)"/><rect style="fill:#416ddd;fill-opacity:1" id="rect3771" width="53.572" height="285" x="310" y="346.648" rx="6.853" ry="5.245"/><rect style="fill:#416ddd;fill-opacity:1" id="rect3791" width="145" height="47.857" x="205" y="465.219" rx="4.701" ry="19.514"/></g></svg>