<svg xmlns="http://www.w3.org/2000/svg" xmlns:xlink="http://www.w3.org/1999/xlink" width="855" height="841" contentScriptType="text/ecmascript" contentStyleType="text/css" preserveAspectRatio="xMidYMid meet" version="1.1" viewBox="-495 -481 992 975" zoomAndPan="magnify"><g id="edges"><path fill="none" stroke="#b5477e" stroke-opacity="1" stroke-width="1" d="M -198.700806,-79.082893 C -201.618668,-117.536224 -148.315445,-179.592987 -109.862114,-182.510849" class="1170 1198"/><path fill="none" stroke="#7e7eb5" stroke-opacity="1" stroke-width="1" d="M -198.700806,-79.082893 C -160.572906,-82.791306 -97.818451,-31.162083 -94.110039,6.965812" class="1170 1200"/><path fill="none" stroke="#7e47b5" stroke-opacity="1" stroke-width="1" d="M 382.055908,274.719421 C 381.892548,312.405975 325.117645,368.690826 287.431091,368.527466" class="1171 1207"/><path fill="none" stroke="#7e47b5" stroke-opacity="1" stroke-width="1" d="M 382.055908,274.719421 C 371.019073,238.912735 408.173889,168.647476 443.980560,157.610657" class="1171 1215"/><path fill="none" stroke="#7e47b5" stroke-opacity="1" stroke-width="1" d="M -241.330002,233.992905 C -312.172821,251.359558 -444.487030,171.145325 -461.853699,100.302505" class="1172 1192"/><path fill="none" stroke="#7e47b5" stroke-opacity="1" stroke-width="1" d="M -241.330002,233.992905 C -236.434845,271.816315 -285.827271,335.894196 -323.650696,340.789337" class="1172 1208"/><path fill="none" stroke="#b5477e" stroke-opacity="1" stroke-width="1" d="M 173.625977,432.745667 C 156.425491,465.948853 80.819977,489.952881 47.616798,472.752380" class="1174 1186"/><path fill="none" stroke="#7e47b5" stroke-opacity="1" stroke-width="1" d="M 173.625977,432.745667 C 147.165070,373.265442 196.694031,244.353745 256.174255,217.892853" class="1174 1197"/><path fill="none" stroke="#7e47b5" stroke-opacity="1" stroke-width="1" d="M -122.350746,309.178192 C -139.678772,239.384384 -60.980087,108.701660 8.813726,91.373634" class="1176 1182"/><path fill="none" stroke="#7e47b5" stroke-opacity="1" stroke-width="1" d="M -122.350746,309.178192 C -156.288498,355.760406 -277.068481,374.727081 -323.650696,340.789337" class="1176 1208"/><path fill="none" stroke="#7e47b5" stroke-opacity="1" stroke-width="1" d="M -278.728973,-382.334442 C -278.258026,-343.928253 -335.160919,-285.612610 -373.567108,-285.141663" class="1177 1204"/><path fill="none" stroke="#7e7eb5" stroke-opacity="1" stroke-width="1" d="M -278.728973,-382.334442 C -226.064850,-408.154419 -108.338684,-367.888214 -82.518700,-315.224060" class="1177 1216"/><path fill="none" stroke="#b5477e" stroke-opacity="1" stroke-width="1" d="M 222.462250,5.467579 C 142.970367,-2.975136 36.396629,-134.877029 44.839348,-214.368896" class="1178 1181"/><path fill="none" stroke="#b5477e" stroke-opacity="1" stroke-width="1" d="M 222.462250,5.467579 C 246.810135,-64.725861 388.622192,-133.494171 458.815613,-109.146263" class="1178 1185"/><path fill="none" stroke="#7e47b5" stroke-opacity="1" stroke-width="1" d="M 222.462250,5.467579 C 234.065231,45.235836 191.817337,122.292686 152.049072,133.895676" class="1178 1195"/><path fill="none" stroke="#7e7eb5" stroke-opacity="1" stroke-width="1" d="M 222.462250,5.467579 C 235.278442,-28.566694 305.554169,-60.393791 339.588440,-47.577587" class="1178 1219"/><path fill="none" stroke="#b57e7e" stroke-opacity="1" stroke-width="1" d="M -38.048809,-466.542145 C -55.578819,-434.859100 -129.398407,-413.629547 -161.081436,-431.159576" class="1179 1217"/><path fill="none" stroke="#7e47b5" stroke-opacity="1" stroke-width="1" d="M -7.676819,-95.161003 C 32.928223,-61.152184 42.822548,50.768593 8.813726,91.373634" class="1180 1182"/><path fill="none" stroke="#b5477e" stroke-opacity="1" stroke-width="1" d="M -7.676819,-95.161003 C 62.657169,-39.706158 84.975883,148.977081 29.521038,219.311081" class="1180 1184"/><path fill="none" stroke="#7e7e7e" stroke-opacity="1" stroke-width="1" d="M -7.676819,-95.161003 C -5.464455,-169.274872 109.024902,-277.127167 183.138779,-274.914795" class="1180 1210"/><path fill="none" stroke="#b57e7e" stroke-opacity="1" stroke-width="1" d="M -7.676819,-95.161003 C -105.557457,-131.679794 -197.600220,-333.278931 -161.081436,-431.159576" class="1180 1217"/><path fill="none" stroke="#7e7e7e" stroke-opacity="1" stroke-width="1" d="M 44.839348,-214.368896 C 61.316406,-142.312088 -22.053223,-9.511248 -94.110039,6.965812" class="1181 1200"/><path fill="none" stroke="#b54747" stroke-opacity="1" stroke-width="1" d="M 44.839348,-214.368896 C 21.039787,-242.259491 27.176323,-319.794708 55.066910,-343.594269" class="1181 1212"/><path fill="none" stroke="#7e7e7e" stroke-opacity="1" stroke-width="1" d="M 44.839348,-214.368896 C -0.803299,-209.068329 -77.218124,-269.581421 -82.518700,-315.224060" class="1181 1216"/><path fill="none" stroke="#477e7e" stroke-opacity="1" stroke-width="1" d="M 8.813726,91.373634 C 5.236237,53.625359 56.492413,-8.363288 94.240692,-11.940778" class="1182 1202"/><path fill="none" stroke="#477e7e" stroke-opacity="1" stroke-width="1" d="M 8.813726,91.373634 C 1.242216,131.637955 -70.511536,180.677185 -110.775856,173.105667" class="1182 1213"/><path fill="none" stroke="#7e47b5" stroke-opacity="1" stroke-width="1" d="M -330.625183,-16.555227 C -333.499329,33.062019 -412.236450,103.176666 -461.853699,100.302505" class="1183 1192"/><path fill="none" stroke="#7e7e7e" stroke-opacity="1" stroke-width="1" d="M -330.625183,-16.555227 C -360.909882,6.935709 -441.573273,-3.254902 -465.064209,-33.539577" class="1183 1211"/><path fill="none" stroke="#7e7eb5" stroke-opacity="1" stroke-width="1" d="M -330.625183,-16.555227 C -340.737640,-125.910294 -191.873764,-305.111603 -82.518700,-315.224060" class="1183 1216"/><path fill="none" stroke="#7e477e" stroke-opacity="1" stroke-width="1" d="M 29.521038,219.311081 C 36.943562,177.722397 110.460388,126.473152 152.049072,133.895676" class="1184 1195"/><path fill="none" stroke="#7e477e" stroke-opacity="1" stroke-width="1" d="M 458.815613,-109.146263 C 487.470123,-83.332939 491.731873,-1.631208 465.918549,27.023291" class="1185 1203"/><path fill="none" stroke="#7e477e" stroke-opacity="1" stroke-width="1" d="M 458.815613,-109.146263 C 411.572083,-88.595963 309.881317,-128.635803 289.331024,-175.879333" class="1185 1209"/><path fill="none" stroke="#b54747" stroke-opacity="1" stroke-width="1" d="M 47.616798,472.752380 C 14.995525,455.573120 -8.167484,380.872314 9.011781,348.251038" class="1186 1194"/><path fill="none" stroke="#7e7e7e" stroke-opacity="1" stroke-width="1" d="M 410.390137,-234.456757 C 373.337616,-236.619598 321.003082,-295.442657 323.165955,-332.495178" class="1187 1205"/><path fill="none" stroke="#7e7eb5" stroke-opacity="1" stroke-width="1" d="M -209.184845,74.643425 C -199.705414,38.092941 -130.660522,-2.513628 -94.110039,6.965812" class="1188 1200"/><path fill="none" stroke="#7e47b5" stroke-opacity="1" stroke-width="1" d="M -219.649887,-260.786621 C -255.304337,-234.874176 -347.654663,-249.487213 -373.567108,-285.141663" class="1189 1204"/><path fill="none" stroke="#7e7e7e" stroke-opacity="1" stroke-width="1" d="M -219.649887,-260.786621 C -223.283356,-166.254364 -370.531952,-29.906120 -465.064209,-33.539577" class="1189 1211"/><path fill="none" stroke="#7e7e7e" stroke-opacity="1" stroke-width="1" d="M -308.912506,-155.035217 C -315.843719,-99.505745 -409.534729,-26.608368 -465.064209,-33.539577" class="1190 1211"/><path fill="none" stroke="#7e477e" stroke-opacity="1" stroke-width="1" d="M -461.853699,100.302505 C -430.291718,78.888763 -350.828125,94.111130 -329.414398,125.673111" class="1192 1206"/><path fill="none" stroke="#7e7e7e" stroke-opacity="1" stroke-width="1" d="M 163.556458,-133.328140 C 173.970764,-95.187515 132.381317,-22.355097 94.240692,-11.940778" class="1193 1202"/><path fill="none" stroke="#7e7e7e" stroke-opacity="1" stroke-width="1" d="M 163.556458,-133.328140 C 155.644958,-205.083450 251.410645,-324.583679 323.165955,-332.495178" class="1193 1205"/><path fill="none" stroke="#7e47b5" stroke-opacity="1" stroke-width="1" d="M 163.556458,-133.328140 C 180.201126,-166.993286 255.665878,-192.524002 289.331024,-175.879333" class="1193 1209"/><path fill="none" stroke="#7e7e7e" stroke-opacity="1" stroke-width="1" d="M 163.556458,-133.328140 C 139.155579,-165.561935 150.904984,-250.513916 183.138779,-274.914795" class="1193 1210"/><path fill="none" stroke="#7e7e47" stroke-opacity="1" stroke-width="1" d="M 9.011781,348.251038 C 26.187138,310.328064 108.834656,279.206573 146.757660,296.381927" class="1194 1199"/><path fill="none" stroke="#7e7e47" stroke-opacity="1" stroke-width="1" d="M 9.011781,348.251038 C -22.941914,406.191376 -157.782944,445.171326 -215.723267,413.217621" class="1194 1218"/><path fill="none" stroke="#4747b5" stroke-opacity="1" stroke-width="1" d="M 152.049072,133.895676 C 189.673553,129.870071 252.148651,180.268372 256.174255,217.892853" class="1195 1197"/><path fill="none" stroke="#477e7e" stroke-opacity="1" stroke-width="1" d="M 152.049072,133.895676 C 183.488037,167.451218 180.313202,264.942963 146.757660,296.381927" class="1195 1199"/><path fill="none" stroke="#7e7e7e" stroke-opacity="1" stroke-width="1" d="M 321.283356,100.551414 C 325.544312,174.622650 220.828903,292.120972 146.757660,296.381927" class="1196 1199"/><path fill="none" stroke="#7e47b5" stroke-opacity="1" stroke-width="1" d="M 321.283356,100.551414 C 335.504761,56.918747 422.285889,12.801878 465.918549,27.023291" class="1196 1203"/><path fill="none" stroke="#7e47b5" stroke-opacity="1" stroke-width="1" d="M 321.283356,100.551414 C 357.234619,87.423820 430.852966,121.659363 443.980560,157.610657" class="1196 1215"/><path fill="none" stroke="#477e7e" stroke-opacity="1" stroke-width="1" d="M 256.174255,217.892853 C 177.820801,204.312836 80.660675,66.412659 94.240692,-11.940778" class="1197 1202"/><path fill="none" stroke="#4747b5" stroke-opacity="1" stroke-width="1" d="M 256.174255,217.892853 C 292.552551,241.768402 311.306641,332.149170 287.431091,368.527466" class="1197 1207"/><path fill="none" stroke="#477eb5" stroke-opacity="1" stroke-width="1" d="M 256.174255,217.892853 C 219.763000,148.115936 269.811523,-11.166340 339.588440,-47.577587" class="1197 1219"/><path fill="none" stroke="#7e7e7e" stroke-opacity="1" stroke-width="1" d="M -109.862114,-182.510849 C -68.816376,-147.765945 -59.365124,-34.079929 -94.110039,6.965812" class="1198 1200"/><path fill="none" stroke="#b57e47" stroke-opacity="1" stroke-width="1" d="M -109.862114,-182.510849 C -169.835724,-221.996735 -200.567322,-371.185974 -161.081436,-431.159576" class="1198 1217"/><path fill="none" stroke="#47b57e" stroke-opacity="1" stroke-width="1" d="M -94.110039,6.965812 C -64.215225,43.526951 -74.214722,143.210846 -110.775856,173.105667" class="1200 1213"/><path fill="none" stroke="#7e7e7e" stroke-opacity="1" stroke-width="1" d="M 220.820450,-411.295410 C 257.049591,-416.004456 318.456879,-368.724304 323.165955,-332.495178" class="1201 1205"/><path fill="none" stroke="#47b547" stroke-opacity="1" stroke-width="1" d="M 94.240692,-11.940778 C 59.425503,-82.315201 112.764359,-240.099609 183.138779,-274.914795" class="1202 1210"/><path fill="none" stroke="#47b57e" stroke-opacity="1" stroke-width="1" d="M 94.240692,-11.940778 C -1.767849,-37.245564 -107.823486,-219.215515 -82.518700,-315.224060" class="1202 1216"/><path fill="none" stroke="#477eb5" stroke-opacity="1" stroke-width="1" d="M 465.918549,27.023291 C 425.732361,37.369133 349.934296,-7.391390 339.588440,-47.577587" class="1203 1219"/><path fill="none" stroke="#7e7e7e" stroke-opacity="1" stroke-width="1" d="M -373.567108,-285.141663 C -360.273560,-356.842377 -232.782150,-444.453125 -161.081436,-431.159576" class="1204 1217"/><path fill="none" stroke="#7e7e47" stroke-opacity="1" stroke-width="1" d="M -329.414398,125.673111 C -276.200165,91.431915 -145.017059,119.891449 -110.775856,173.105667" class="1206 1213"/><path fill="none" stroke="#477e7e" stroke-opacity="1" stroke-width="1" d="M -323.650696,340.789337 C -287.579559,333.689514 -222.823090,377.146484 -215.723267,413.217621" class="1208 1218"/><path fill="none" stroke="#477eb5" stroke-opacity="1" stroke-width="1" d="M 289.331024,-175.879333 C 325.042847,-160.270462 355.197296,-83.289421 339.588440,-47.577587" class="1209 1219"/><path fill="none" stroke="#47b547" stroke-opacity="1" stroke-width="1" d="M -110.775856,173.105667 C -83.742943,242.117538 -146.711395,386.184692 -215.723267,413.217621" class="1213 1218"/><path fill="none" stroke="#7eb57e" stroke-opacity="1" stroke-width="1" d="M -82.518700,-315.224060 C -121.418350,-322.698608 -168.555984,-392.259918 -161.081436,-431.159576" class="1216 1217"/></g><g id="nodes"><circle cx="-198.701" cy="-79.083" r="21.2" fill="#b547b5" fill-opacity="1" stroke="#000" stroke-opacity="1" stroke-width="1" class="1170"/><circle cx="382.056" cy="274.719" r="21.2" fill="#b547b5" fill-opacity="1" stroke="#000" stroke-opacity="1" stroke-width="1" class="1171"/><circle cx="-241.33" cy="233.993" r="21.2" fill="#b547b5" fill-opacity="1" stroke="#000" stroke-opacity="1" stroke-width="1" class="1172"/><circle cx="-91.972" cy="460.682" r="2" fill="#b547b5" fill-opacity="1" stroke="#000" stroke-opacity="1" stroke-width="1" class="1173"/><circle cx="173.626" cy="432.746" r="21.2" fill="#b547b5" fill-opacity="1" stroke="#000" stroke-opacity="1" stroke-width="1" class="1174"/><circle cx="-410.302" cy="236.164" r="2" fill="#b547b5" fill-opacity="1" stroke="#000" stroke-opacity="1" stroke-width="1" class="1175"/><circle cx="-122.351" cy="309.178" r="21.2" fill="#b547b5" fill-opacity="1" stroke="#000" stroke-opacity="1" stroke-width="1" class="1176"/><circle cx="-278.729" cy="-382.334" r="21.2" fill="#b547b5" fill-opacity="1" stroke="#000" stroke-opacity="1" stroke-width="1" class="1177"/><circle cx="222.462" cy="5.468" r="40.4" fill="#b547b5" fill-opacity="1" stroke="#000" stroke-opacity="1" stroke-width="1" class="1178"/><circle cx="-38.049" cy="-466.542" r="11.6" fill="#b547b5" fill-opacity="1" stroke="#000" stroke-opacity="1" stroke-width="1" class="1179"/><circle cx="-7.677" cy="-95.161" r="40.4" fill="#b547b5" fill-opacity="1" stroke="#000" stroke-opacity="1" stroke-width="1" class="1180"/><circle cx="44.839" cy="-214.369" r="40.4" fill="#b54747" fill-opacity="1" stroke="#000" stroke-opacity="1" stroke-width="1" class="1181"/><circle cx="8.814" cy="91.374" r="40.4" fill="#4747b5" fill-opacity="1" stroke="#000" stroke-opacity="1" stroke-width="1" class="1182"/><circle cx="-330.625" cy="-16.555" r="30.8" fill="#b547b5" fill-opacity="1" stroke="#000" stroke-opacity="1" stroke-width="1" class="1183"/><circle cx="29.521" cy="219.311" r="21.2" fill="#b54747" fill-opacity="1" stroke="#000" stroke-opacity="1" stroke-width="1" class="1184"/><circle cx="458.816" cy="-109.146" r="30.8" fill="#b54747" fill-opacity="1" stroke="#000" stroke-opacity="1" stroke-width="1" class="1185"/><circle cx="47.617" cy="472.752" r="21.2" fill="#b54747" fill-opacity="1" stroke="#000" stroke-opacity="1" stroke-width="1" class="1186"/><circle cx="410.39" cy="-234.457" r="11.6" fill="#b547b5" fill-opacity="1" stroke="#000" stroke-opacity="1" stroke-width="1" class="1187"/><circle cx="-209.185" cy="74.643" r="11.6" fill="#b547b5" fill-opacity="1" stroke="#000" stroke-opacity="1" stroke-width="1" class="1188"/><circle cx="-219.65" cy="-260.787" r="21.2" fill="#b547b5" fill-opacity="1" stroke="#000" stroke-opacity="1" stroke-width="1" class="1189"/><circle cx="-308.913" cy="-155.035" r="11.6" fill="#b547b5" fill-opacity="1" stroke="#000" stroke-opacity="1" stroke-width="1" class="1190"/><circle cx="-444.106" cy="-163.726" r="2" fill="#b547b5" fill-opacity="1" stroke="#000" stroke-opacity="1" stroke-width="1" class="1191"/><circle cx="-461.854" cy="100.303" r="30.8" fill="#4747b5" fill-opacity="1" stroke="#000" stroke-opacity="1" stroke-width="1" class="1192"/><circle cx="163.556" cy="-133.328" r="40.4" fill="#b547b5" fill-opacity="1" stroke="#000" stroke-opacity="1" stroke-width="1" class="1193"/><circle cx="9.012" cy="348.251" r="30.8" fill="#b54747" fill-opacity="1" stroke="#000" stroke-opacity="1" stroke-width="1" class="1194"/><circle cx="152.049" cy="133.896" r="40.4" fill="#4747b5" fill-opacity="1" stroke="#000" stroke-opacity="1" stroke-width="1" class="1195"/><circle cx="321.283" cy="100.551" r="30.8" fill="#b547b5" fill-opacity="1" stroke="#000" stroke-opacity="1" stroke-width="1" class="1196"/><circle cx="256.174" cy="217.893" r="50" fill="#4747b5" fill-opacity="1" stroke="#000" stroke-opacity="1" stroke-width="1" class="1197"/><circle cx="-109.862" cy="-182.511" r="30.8" fill="#b54747" fill-opacity="1" stroke="#000" stroke-opacity="1" stroke-width="1" class="1198"/><circle cx="146.758" cy="296.382" r="30.8" fill="#47b547" fill-opacity="1" stroke="#000" stroke-opacity="1" stroke-width="1" class="1199"/><circle cx="-94.11" cy="6.966" r="50" fill="#47b5b5" fill-opacity="1" stroke="#000" stroke-opacity="1" stroke-width="1" class="1200"/><circle cx="220.82" cy="-411.295" r="11.6" fill="#b547b5" fill-opacity="1" stroke="#000" stroke-opacity="1" stroke-width="1" class="1201"/><circle cx="94.241" cy="-11.941" r="50" fill="#47b547" fill-opacity="1" stroke="#000" stroke-opacity="1" stroke-width="1" class="1202"/><circle cx="465.919" cy="27.023" r="30.8" fill="#4747b5" fill-opacity="1" stroke="#000" stroke-opacity="1" stroke-width="1" class="1203"/><circle cx="-373.567" cy="-285.142" r="30.8" fill="#4747b5" fill-opacity="1" stroke="#000" stroke-opacity="1" stroke-width="1" class="1204"/><circle cx="323.166" cy="-332.495" r="30.8" fill="#47b547" fill-opacity="1" stroke="#000" stroke-opacity="1" stroke-width="1" class="1205"/><circle cx="-329.414" cy="125.673" r="21.2" fill="#b54747" fill-opacity="1" stroke="#000" stroke-opacity="1" stroke-width="1" class="1206"/><circle cx="287.431" cy="368.527" r="21.2" fill="#4747b5" fill-opacity="1" stroke="#000" stroke-opacity="1" stroke-width="1" class="1207"/><circle cx="-323.651" cy="340.789" r="30.8" fill="#4747b5" fill-opacity="1" stroke="#000" stroke-opacity="1" stroke-width="1" class="1208"/><circle cx="289.331" cy="-175.879" r="30.8" fill="#4747b5" fill-opacity="1" stroke="#000" stroke-opacity="1" stroke-width="1" class="1209"/><circle cx="183.139" cy="-274.915" r="30.8" fill="#47b547" fill-opacity="1" stroke="#000" stroke-opacity="1" stroke-width="1" class="1210"/><circle cx="-465.064" cy="-33.54" r="30.8" fill="#47b547" fill-opacity="1" stroke="#000" stroke-opacity="1" stroke-width="1" class="1211"/><circle cx="55.067" cy="-343.594" r="11.6" fill="#b54747" fill-opacity="1" stroke="#000" stroke-opacity="1" stroke-width="1" class="1212"/><circle cx="-110.776" cy="173.106" r="40.4" fill="#47b547" fill-opacity="1" stroke="#000" stroke-opacity="1" stroke-width="1" class="1213"/><circle cx="99.554" cy="-465.422" r="2" fill="#b547b5" fill-opacity="1" stroke="#000" stroke-opacity="1" stroke-width="1" class="1214"/><circle cx="443.981" cy="157.611" r="21.2" fill="#4747b5" fill-opacity="1" stroke="#000" stroke-opacity="1" stroke-width="1" class="1215"/><circle cx="-82.519" cy="-315.224" r="50" fill="#47b5b5" fill-opacity="1" stroke="#000" stroke-opacity="1" stroke-width="1" class="1216"/><circle cx="-161.081" cy="-431.16" r="50" fill="#b5b547" fill-opacity="1" stroke="#000" stroke-opacity="1" stroke-width="1" class="1217"/><circle cx="-215.723" cy="413.218" r="30.8" fill="#47b547" fill-opacity="1" stroke="#000" stroke-opacity="1" stroke-width="1" class="1218"/><circle cx="339.588" cy="-47.578" r="40.4" fill="#47b5b5" fill-opacity="1" stroke="#000" stroke-opacity="1" stroke-width="1" class="1219"/></g></svg>